# xmcd CD database file
#
# Track frame offsets:
#	183
#	11368
#	23218
#	37815
#	52393
#	67438
#	80225
#	94358
#	107223
#	120368
#	133910
#	147373
#	159245
#	173495
#	187483
#	198678
#	212448
#	224955
#	236805
#	250610
#	263803
#	276348
#
# Disc length: 3851 seconds
#
# Revision: 0
# Processed by: cddbd v1.4PL0 Copyright (c) Steve Scherf et al.
# Submitted via: CDex 1.51
#
DISCID=5e0f0916
DTITLE=Billie Holiday - Complete Edition Volume 3 - 1934-1937
DYEAR=1900
DGENRE=Jazz
TTITLE0=Blues (Big City Blues)
TTITLE1=No Regrets
TTITLE2=Who Loves You
TTITLE3=Pennies From Heaven
TTITLE4=That's Life I Guess
TTITLE5=He Ain't Got Rhythm
TTITLE6=This Year's Kisses
TTITLE7=Why Was I Born ?
TTITLE8=I Must Have ThatMan
TTITLE9=The Mood That I'm In
TTITLE10=You Showed Me The Way
TTITLE11=Sentimental And Melancholy
TTITLE12=ThisIs My Last Affair
TTITLE13=Carelessly
TTITLE14=How Could You ?
TTITLE15=Moanin' Low
TTITLE16=Where Is The Sun ?
TTITLE17=Let's Call The Whole Thing Off
TTITLE18=They Can't Take That Away From Me
TTITLE19=They Can't Take That Away From Me
TTITLE20=I Don't Know If I'm Coming Or Going
TTITLE21=I Don't Know If I'm Coming Or Going
EXTD=
EXTT0=
EXTT1=
EXTT2=
EXTT3=
EXTT4=
EXTT5=
EXTT6=
EXTT7=
EXTT8=
EXTT9=
EXTT10=
EXTT11=
EXTT12=
EXTT13=
EXTT14=
EXTT15=
EXTT16=
EXTT17=
EXTT18=
EXTT19=
EXTT20=
EXTT21=
PLAYORDER=
